<mxfile host="app.diagrams.net" agent="Mozilla/5.0 (Windows NT 10.0; Win64; x64) AppleWebKit/537.36 (KHTML, like Gecko) Chrome/138.0.0.0 Safari/537.36" version="28.0.7" pages="4">
  <diagram name="ERD" id="xKZpYpew4H5Uc_DanPvj">
    <mxGraphModel dx="2037" dy="2230" grid="1" gridSize="10" guides="1" tooltips="1" connect="1" arrows="1" fold="1" page="1" pageScale="1" pageWidth="827" pageHeight="1169" background="none" math="0" shadow="0">
      <root>
        <mxCell id="0" />
        <mxCell id="1" parent="0" />
        <mxCell id="jG_9sbvae6xoVpFAYAI8-2" value="User&lt;div&gt;&lt;br&gt;&lt;/div&gt;" style="shape=umlActor;verticalLabelPosition=bottom;verticalAlign=top;html=1;outlineConnect=0;" vertex="1" parent="1">
          <mxGeometry y="80" width="45" height="90" as="geometry" />
        </mxCell>
        <mxCell id="jG_9sbvae6xoVpFAYAI8-4" value="" style="endArrow=none;html=1;rounded=0;" edge="1" parent="1" source="jG_9sbvae6xoVpFAYAI8-2" target="jG_9sbvae6xoVpFAYAI8-5">
          <mxGeometry width="50" height="50" relative="1" as="geometry">
            <mxPoint x="390" y="210" as="sourcePoint" />
            <mxPoint x="120" y="40" as="targetPoint" />
          </mxGeometry>
        </mxCell>
        <mxCell id="jG_9sbvae6xoVpFAYAI8-5" value="SignIn - SignUp" style="ellipse;whiteSpace=wrap;html=1;" vertex="1" parent="1">
          <mxGeometry x="190" y="-90" width="120" height="80" as="geometry" />
        </mxCell>
        <mxCell id="jG_9sbvae6xoVpFAYAI8-9" value="" style="endArrow=none;html=1;rounded=0;exitX=0.889;exitY=0.333;exitDx=0;exitDy=0;exitPerimeter=0;" edge="1" target="jG_9sbvae6xoVpFAYAI8-10" parent="1" source="jG_9sbvae6xoVpFAYAI8-2">
          <mxGeometry width="50" height="50" relative="1" as="geometry">
            <mxPoint x="60" y="130" as="sourcePoint" />
            <mxPoint x="270" y="150" as="targetPoint" />
          </mxGeometry>
        </mxCell>
        <mxCell id="jG_9sbvae6xoVpFAYAI8-10" value="Search product" style="ellipse;whiteSpace=wrap;html=1;" vertex="1" parent="1">
          <mxGeometry x="190" y="10" width="120" height="80" as="geometry" />
        </mxCell>
        <mxCell id="jG_9sbvae6xoVpFAYAI8-11" value="" style="endArrow=none;html=1;rounded=0;exitX=1;exitY=0.3333333333333333;exitDx=0;exitDy=0;exitPerimeter=0;entryX=0;entryY=0.5;entryDx=0;entryDy=0;" edge="1" parent="1" source="jG_9sbvae6xoVpFAYAI8-2" target="jG_9sbvae6xoVpFAYAI8-12">
          <mxGeometry width="50" height="50" relative="1" as="geometry">
            <mxPoint x="109.99" y="204.38" as="sourcePoint" />
            <mxPoint x="210" y="150" as="targetPoint" />
          </mxGeometry>
        </mxCell>
        <mxCell id="jG_9sbvae6xoVpFAYAI8-12" value="View detail product" style="ellipse;whiteSpace=wrap;html=1;" vertex="1" parent="1">
          <mxGeometry x="190" y="100" width="120" height="80" as="geometry" />
        </mxCell>
        <mxCell id="jG_9sbvae6xoVpFAYAI8-13" value="Comment product" style="ellipse;whiteSpace=wrap;html=1;" vertex="1" parent="1">
          <mxGeometry x="190" y="190" width="120" height="80" as="geometry" />
        </mxCell>
        <mxCell id="jG_9sbvae6xoVpFAYAI8-14" value="" style="endArrow=none;html=1;rounded=0;entryX=0;entryY=0.5;entryDx=0;entryDy=0;exitX=1;exitY=0.3333333333333333;exitDx=0;exitDy=0;exitPerimeter=0;" edge="1" target="jG_9sbvae6xoVpFAYAI8-13" parent="1" source="jG_9sbvae6xoVpFAYAI8-2">
          <mxGeometry width="50" height="50" relative="1" as="geometry">
            <mxPoint x="80" y="180" as="sourcePoint" />
            <mxPoint x="210" y="240" as="targetPoint" />
          </mxGeometry>
        </mxCell>
        <mxCell id="jG_9sbvae6xoVpFAYAI8-15" value="" style="endArrow=none;dashed=1;html=1;rounded=0;exitX=1;exitY=0.5;exitDx=0;exitDy=0;entryX=0;entryY=0.5;entryDx=0;entryDy=0;" edge="1" parent="1" source="jG_9sbvae6xoVpFAYAI8-10" target="jG_9sbvae6xoVpFAYAI8-16">
          <mxGeometry width="50" height="50" relative="1" as="geometry">
            <mxPoint x="440" y="20" as="sourcePoint" />
            <mxPoint x="370" y="50" as="targetPoint" />
          </mxGeometry>
        </mxCell>
        <mxCell id="jG_9sbvae6xoVpFAYAI8-16" value="Filter by category" style="ellipse;whiteSpace=wrap;html=1;" vertex="1" parent="1">
          <mxGeometry x="380" y="10" width="120" height="80" as="geometry" />
        </mxCell>
        <mxCell id="jG_9sbvae6xoVpFAYAI8-17" value="" style="endArrow=none;dashed=1;html=1;rounded=0;exitX=1;exitY=0.5;exitDx=0;exitDy=0;entryX=0;entryY=0.5;entryDx=0;entryDy=0;" edge="1" target="jG_9sbvae6xoVpFAYAI8-18" parent="1" source="jG_9sbvae6xoVpFAYAI8-12">
          <mxGeometry width="50" height="50" relative="1" as="geometry">
            <mxPoint x="301" y="155" as="sourcePoint" />
            <mxPoint x="370" y="140" as="targetPoint" />
          </mxGeometry>
        </mxCell>
        <mxCell id="jG_9sbvae6xoVpFAYAI8-18" value="View images products" style="ellipse;whiteSpace=wrap;html=1;" vertex="1" parent="1">
          <mxGeometry x="380" y="100" width="120" height="80" as="geometry" />
        </mxCell>
        <mxCell id="jG_9sbvae6xoVpFAYAI8-19" value="Rate product" style="ellipse;whiteSpace=wrap;html=1;" vertex="1" parent="1">
          <mxGeometry x="380" y="190" width="120" height="80" as="geometry" />
        </mxCell>
        <mxCell id="jG_9sbvae6xoVpFAYAI8-20" value="" style="endArrow=none;dashed=1;html=1;rounded=0;exitX=1;exitY=0.5;exitDx=0;exitDy=0;entryX=0;entryY=0.5;entryDx=0;entryDy=0;" edge="1" target="jG_9sbvae6xoVpFAYAI8-19" parent="1" source="jG_9sbvae6xoVpFAYAI8-13">
          <mxGeometry width="50" height="50" relative="1" as="geometry">
            <mxPoint x="320" y="220" as="sourcePoint" />
            <mxPoint x="380" y="220" as="targetPoint" />
          </mxGeometry>
        </mxCell>
        <mxCell id="jG_9sbvae6xoVpFAYAI8-21" value="Admin" style="shape=umlActor;verticalLabelPosition=bottom;verticalAlign=top;html=1;outlineConnect=0;" vertex="1" parent="1">
          <mxGeometry y="500" width="45" height="90" as="geometry" />
        </mxCell>
        <mxCell id="jG_9sbvae6xoVpFAYAI8-22" value="" style="endArrow=none;html=1;rounded=0;" edge="1" source="jG_9sbvae6xoVpFAYAI8-21" target="jG_9sbvae6xoVpFAYAI8-23" parent="1">
          <mxGeometry width="50" height="50" relative="1" as="geometry">
            <mxPoint x="390" y="630" as="sourcePoint" />
            <mxPoint x="120" y="460" as="targetPoint" />
          </mxGeometry>
        </mxCell>
        <mxCell id="jG_9sbvae6xoVpFAYAI8-23" value="Manage products" style="ellipse;whiteSpace=wrap;html=1;" vertex="1" parent="1">
          <mxGeometry x="190" y="330" width="120" height="80" as="geometry" />
        </mxCell>
        <mxCell id="jG_9sbvae6xoVpFAYAI8-24" value="" style="endArrow=none;html=1;rounded=0;exitX=0.889;exitY=0.333;exitDx=0;exitDy=0;exitPerimeter=0;" edge="1" source="jG_9sbvae6xoVpFAYAI8-21" target="jG_9sbvae6xoVpFAYAI8-25" parent="1">
          <mxGeometry width="50" height="50" relative="1" as="geometry">
            <mxPoint x="60" y="550" as="sourcePoint" />
            <mxPoint x="270" y="570" as="targetPoint" />
          </mxGeometry>
        </mxCell>
        <mxCell id="jG_9sbvae6xoVpFAYAI8-25" value="Manage categories" style="ellipse;whiteSpace=wrap;html=1;" vertex="1" parent="1">
          <mxGeometry x="190" y="430" width="120" height="80" as="geometry" />
        </mxCell>
        <mxCell id="jG_9sbvae6xoVpFAYAI8-26" value="" style="endArrow=none;html=1;rounded=0;exitX=1;exitY=0.3333333333333333;exitDx=0;exitDy=0;exitPerimeter=0;entryX=0;entryY=0.5;entryDx=0;entryDy=0;" edge="1" source="jG_9sbvae6xoVpFAYAI8-21" target="jG_9sbvae6xoVpFAYAI8-27" parent="1">
          <mxGeometry width="50" height="50" relative="1" as="geometry">
            <mxPoint x="109.99" y="624.38" as="sourcePoint" />
            <mxPoint x="210" y="570" as="targetPoint" />
          </mxGeometry>
        </mxCell>
        <mxCell id="jG_9sbvae6xoVpFAYAI8-27" value="Manage vouchers&amp;nbsp;" style="ellipse;whiteSpace=wrap;html=1;" vertex="1" parent="1">
          <mxGeometry x="190" y="520" width="120" height="80" as="geometry" />
        </mxCell>
        <mxCell id="jG_9sbvae6xoVpFAYAI8-28" value="Manage comments" style="ellipse;whiteSpace=wrap;html=1;" vertex="1" parent="1">
          <mxGeometry x="190" y="610" width="120" height="80" as="geometry" />
        </mxCell>
        <mxCell id="jG_9sbvae6xoVpFAYAI8-29" value="" style="endArrow=none;html=1;rounded=0;entryX=0;entryY=0.5;entryDx=0;entryDy=0;exitX=1;exitY=0.3333333333333333;exitDx=0;exitDy=0;exitPerimeter=0;" edge="1" source="jG_9sbvae6xoVpFAYAI8-21" target="jG_9sbvae6xoVpFAYAI8-28" parent="1">
          <mxGeometry width="50" height="50" relative="1" as="geometry">
            <mxPoint x="80" y="600" as="sourcePoint" />
            <mxPoint x="210" y="660" as="targetPoint" />
          </mxGeometry>
        </mxCell>
        <mxCell id="jG_9sbvae6xoVpFAYAI8-30" value="" style="endArrow=none;dashed=1;html=1;rounded=0;exitX=1;exitY=0.5;exitDx=0;exitDy=0;entryX=0;entryY=0.5;entryDx=0;entryDy=0;" edge="1" source="jG_9sbvae6xoVpFAYAI8-25" target="jG_9sbvae6xoVpFAYAI8-31" parent="1">
          <mxGeometry width="50" height="50" relative="1" as="geometry">
            <mxPoint x="440" y="440" as="sourcePoint" />
            <mxPoint x="370" y="470" as="targetPoint" />
          </mxGeometry>
        </mxCell>
        <mxCell id="jG_9sbvae6xoVpFAYAI8-31" value="Manage Inventory" style="ellipse;whiteSpace=wrap;html=1;" vertex="1" parent="1">
          <mxGeometry x="380" y="430" width="120" height="80" as="geometry" />
        </mxCell>
        <mxCell id="jG_9sbvae6xoVpFAYAI8-37" value="" style="endArrow=none;dashed=1;html=1;rounded=0;exitX=1;exitY=0.5;exitDx=0;exitDy=0;entryX=0;entryY=0.5;entryDx=0;entryDy=0;" edge="1" parent="1" source="jG_9sbvae6xoVpFAYAI8-23" target="jG_9sbvae6xoVpFAYAI8-38">
          <mxGeometry width="50" height="50" relative="1" as="geometry">
            <mxPoint x="340" y="369.76" as="sourcePoint" />
            <mxPoint x="370" y="370" as="targetPoint" />
          </mxGeometry>
        </mxCell>
        <mxCell id="jG_9sbvae6xoVpFAYAI8-38" value="CRUD Products" style="ellipse;whiteSpace=wrap;html=1;" vertex="1" parent="1">
          <mxGeometry x="380" y="330" width="120" height="80" as="geometry" />
        </mxCell>
      </root>
    </mxGraphModel>
  </diagram>
  <diagram id="SeEo3FY395o8AyCoRJQV" name="Trang-2">
    <mxGraphModel dx="1426" dy="743" grid="1" gridSize="10" guides="1" tooltips="1" connect="1" arrows="1" fold="1" page="1" pageScale="1" pageWidth="827" pageHeight="1169" math="0" shadow="0">
      <root>
        <mxCell id="0" />
        <mxCell id="1" parent="0" />
      </root>
    </mxGraphModel>
  </diagram>
  <diagram id="asxrbdTrt7ZCULQZKLX9" name="Trang-3">
    <mxGraphModel dx="1426" dy="743" grid="1" gridSize="10" guides="1" tooltips="1" connect="1" arrows="1" fold="1" page="1" pageScale="1" pageWidth="827" pageHeight="1169" math="0" shadow="0">
      <root>
        <mxCell id="0" />
        <mxCell id="1" parent="0" />
      </root>
    </mxGraphModel>
  </diagram>
  <diagram id="EyHkIHqzJiNoFmHrzL4W" name="Trang-4">
    <mxGraphModel dx="1426" dy="743" grid="1" gridSize="10" guides="1" tooltips="1" connect="1" arrows="1" fold="1" page="1" pageScale="1" pageWidth="827" pageHeight="1169" math="0" shadow="0">
      <root>
        <mxCell id="0" />
        <mxCell id="1" parent="0" />
      </root>
    </mxGraphModel>
  </diagram>
</mxfile>
